<?xml version="1.0" encoding="utf-8"?>
<!-- Generator: Adobe Illustrator 24.1.3, SVG Export Plug-In . SVG Version: 6.00 Build 0)  -->
<svg version="1.1" id="圖層_1" xmlns="http://www.w3.org/2000/svg" xmlns:xlink="http://www.w3.org/1999/xlink" x="0px" y="0px"
	 viewBox="0 0 283.5 61.9" style="enable-background:new 0 0 283.5 61.9;" xml:space="preserve">
<style type="text/css">
	.st0{fill:#006E38;}
</style>
<g>
	<g>
		<path class="st0" d="M75.9,40.6c0-0.2,0.1-1,0.7-1c0.6,0,0.8,0.5,1.1,1.5c0.3,1,1.7,5.7,5.9,5.7c2.3,0,5-1.7,5-4.5
			c0-2.9-2.4-4.1-5.9-5.6c-3-1.3-6.7-2.8-6.7-6.7c0-3.1,2.3-7.5,9.2-7.5c0.8,0,4.6,0.6,5,0.6c1.3,0.1,1.3,0.8,1.3,1.6l-0.2,3.2
			c0,0.2-0.1,0.9-0.6,0.9c-0.4,0-0.6-0.1-0.9-1.2c-0.3-1-1.7-3.9-5.1-3.9c-2.2,0-4.1,1.3-4.1,3.3c0,2.2,1.1,2.7,6.3,5
			c1.8,0.8,6.1,2.7,6.1,7.4c0,4.1-3.1,8.8-9.9,8.8c-3.1,0-6.3-1.4-6.5-1.5c-0.6-0.3-0.6-0.8-0.6-2.1L75.9,40.6z"/>
		<path class="st0" d="M118.7,29c0-3.1,0-3.7-2.2-4c-1.3-0.2-1.5-0.4-1.5-0.9c0-0.7,0.5-0.7,0.9-0.7c0.8,0,2.7,0.2,5.2,0.2
			c0.6,0,1-0.1,1.2-0.1c0.3,0,0.5,0,0.8,0c0.7,0,0.7,0.5,0.7,1.6v17.5c0,2.3,0.5,2.4,2.4,2.6c0.3,0,0.9,0.1,0.9,0.6
			c0,0.4-0.5,0.6-0.8,0.7l-5.9,1.8c-0.5,0.2-0.9,0.2-1,0.2c-0.7,0-0.7-0.7-0.7-1.1v-2.1c0-0.3-0.1-0.7-0.4-0.7
			c-0.2,0-0.5,0.1-0.8,0.4c-2.9,2.3-5.2,3.2-7.2,3.2c-1.5,0-6.9-0.6-6.9-8.2V29c0-3.1,0-3.7-2.2-4c-1.3-0.2-1.5-0.4-1.5-0.9
			c0-0.7,0.5-0.7,0.9-0.7c0.7,0,2.7,0.2,4,0.2c0.8,0,1.5-0.1,2-0.1c0.6,0,1,0,1.2,0c0.4,0,0.7,0.2,0.7,0.8c0,0.4-0.1,0.8-0.1,1.2
			v14.7c0,2.2,0.9,4.9,5.2,4.9c1,0,5.2,0,5.2-3.9V29z"/>
		<path class="st0" d="M151.9,32.5c0-2.6,0-6.7-5-6.7c-1.5,0-3.2,0.6-4.3,1.8c-0.8,0.8-1,1.8-1,3.1v11.6c0,3.1,0,3.7,2.2,4
			c1.3,0.2,1.6,0.4,1.6,0.9c0,0.7-0.5,0.7-0.9,0.7c-0.8,0-4.4-0.2-5.4-0.2c-0.8,0-4.5,0.2-5.3,0.2c-0.4,0-0.9,0-0.9-0.7
			c0-0.5,0.4-0.7,1.5-0.9c2.2-0.3,2.2-0.9,2.2-4V31.9c0-2.6,0-3.8-1.6-3.9c-0.8,0-1.4,0-1.4-0.7c0-0.3,0.2-0.6,0.7-0.7
			c0.4-0.1,3.7-1.6,5.3-3.6c0.4-0.4,0.8-1,1.1-1c0.5,0,0.6,0.5,0.6,1v2.7c0,0.9,0,1.1,0.2,1.1c0.3,0,0.6-0.2,0.7-0.3
			c3.1-3.1,4.7-3.8,7.6-3.8c3.4,0,7.1,2,7.1,7v12.7c0,3.1,0,3.7,2.2,4c1.3,0.2,1.5,0.4,1.5,0.9c0,0.7-0.5,0.7-0.9,0.7
			c-0.8,0-4.5-0.2-5.4-0.2c-0.8,0-4.5,0.2-5.4,0.2c-0.4,0-0.9,0-0.9-0.7c0-0.5,0.4-0.7,1.6-0.9c2.2-0.3,2.2-0.9,2.2-4V32.5z"/>
		<path class="st0" d="M168,40.6c0-0.2,0-1,0.7-1c0.6,0,0.8,0.5,1.1,1.5c0.2,1,1.8,5.7,5.9,5.7c2.3,0,5-1.7,5-4.5
			c0-2.9-2.4-4.1-5.9-5.6c-3-1.3-6.7-2.8-6.7-6.7c0-3.1,2.3-7.5,9.2-7.5c0.8,0,4.6,0.6,5,0.6c1.3,0.1,1.3,0.8,1.3,1.6l-0.2,3.2
			c0,0.2-0.1,0.9-0.6,0.9c-0.4,0-0.6-0.1-0.9-1.2c-0.3-1-1.7-3.9-5.2-3.9c-2.2,0-4.1,1.3-4.1,3.3c0,2.2,1.1,2.7,6.3,5
			c1.8,0.8,6.1,2.7,6.1,7.4c0,4.1-3.1,8.8-9.9,8.8c-3.1,0-6.3-1.4-6.5-1.5c-0.6-0.3-0.6-0.8-0.6-2.1L168,40.6z"/>
		<path class="st0" d="M205.4,48.3c-8,0-12.7-6.7-12.7-12.8c0-6.2,4.9-12.8,12.5-12.8c5.9,0,12.4,4.1,12.4,12.3
			C217.6,42.2,212.5,48.3,205.4,48.3z M205.2,47c3.8,0,7-5.1,7-11.5c0-3.8-1.8-11.6-7.5-11.6c-3.7,0-6.8,3.9-6.8,10.6
			C198,41.2,201.2,47,205.2,47z"/>
		<path class="st0" d="M233.5,25.8c0,0.3,0,0.8,0.3,0.8c0.1,0,0.4-0.3,0.5-0.5c0.1-0.2,2.6-3.3,5.6-3.3c1.9,0,3.7,1.1,3.7,3.3
			c0,2.2-1.8,3.1-3.1,3.1c-1.1,0-1.9-0.4-2.7-1.4c-0.9-1-1.3-1.2-1.6-1.2c-1,0-2.5,0.8-2.5,5.4v10.4c0,2.2,0,3.7,2.6,3.9
			c1.1,0.1,1.8,0.1,1.8,0.9c0,0.8-0.7,0.8-1.1,0.8c-0.9,0-5-0.2-6-0.2c-0.8,0-4.5,0.2-5.3,0.2c-0.4,0-0.9,0-0.9-0.7
			c0-0.5,0.4-0.7,1.5-0.9c2.3-0.3,2.3-0.9,2.3-4V31.9c0-3.5-0.7-3.6-2.6-3.7c-0.2,0-0.7,0-0.7-0.6c0-0.4,0.2-0.6,0.8-0.8
			c1.2-0.4,4.1-2.1,5.2-3.3c0.1-0.1,1.3-1.3,1.5-1.3c0.5,0,0.6,0.4,0.6,0.9V25.8z"/>
		<path class="st0" d="M253.3,32.1c0-2.8-0.5-3.6-2.3-3.7c-0.1,0-1,0-1-0.7c0-0.4,0.2-0.6,0.8-0.9c2.5-0.9,3.6-1.6,4.5-2.2
			c0.4-0.3,2-1.7,2.4-1.7c0.6,0,0.6,0.7,0.6,1.9v17.6c0,3,0,3.7,2.2,4c1.3,0.2,1.5,0.4,1.5,0.9c0,0.7-0.5,0.7-0.9,0.7
			c-0.8,0-3-0.2-5.3-0.2c-2.2,0-4.5,0.2-5.4,0.2c-0.4,0-0.9,0-0.9-0.7c0-0.5,0.4-0.7,1.5-0.9c2.2-0.3,2.2-0.9,2.2-3.9V32.1z
			 M255.7,19.5c-1.7,0-2.9-1.4-2.9-2.9c0-1.5,1.2-3,2.9-3c1.6,0,2.8,1.4,2.8,3.1C258.6,18,257.4,19.5,255.7,19.5z"/>
		<path class="st0" d="M276.2,40.2c0,2.5,0.3,5,3,5c0.8,0,1.5-0.2,3.3-1.4c0.2-0.1,0.4-0.2,0.6-0.2c0.3,0,0.4,0.3,0.4,0.5
			c0,0.8-3.3,4.2-7.1,4.2c-2.7,0-5.2-1.9-5.2-6V26.6c0-0.7-0.4-1-1.2-1c-0.4,0-0.8,0-1.2,0c-0.2,0-0.9,0-0.9-0.6
			c0-0.5,0.6-0.9,0.8-1l1.4-0.8c1.2-0.6,2.8-2.1,4.5-4.9c0.2-0.3,0.5-0.7,0.9-0.7c0.2,0,0.7,0,0.7,0.9v3.7c0,1,0.2,1.3,1.3,1.3h2.9
			c0.7,0,1.1-0.1,1.5-0.1c0.4,0,0.8,0.1,0.7,1.1c-0.1,1-0.3,1.1-0.9,1.1c-0.9,0-2.1-0.1-4.5-0.1c-0.9,0-1,0.1-1,1.2V40.2z"/>
	</g>
	<path class="st0" d="M0,0v61.9h62.4V0H0z M58.6,3.5V35c-0.3-3.1-1.6-6.7-5.3-10.5c0,0-3.8-3.9-7.7-7.9c0,0-6.3-5.3-2.6-13.1H58.6z
		 M35.4,38.7c0.2,0,0.4,0,0.6,0c0,0,0.1,0,0.1,0c0,0,2.7-0.2,3.4-3.4c0.4-2-1.5-3.9-1.5-3.9s-1.4-1.9-3.9-1.9c-2.5,0-4,0.9-4,0.9
		S27,32,25.9,35.5C19.5,29,18,27.1,18,27.1c-2.5-3.1-2.7-5.4-2.7-5.4s-1.1-5.5,3.3-8.8c4.1-2.8,9.1-1.2,9.1-1.2s2.9,0.8,4.7,3.3
		c1.8,2.5,1,6,1,6l-0.6,4.2l1.4,0l2.4-12c0.1,0.5,0.2,1,0.4,1.5c0,0,0.9,3.8,7.1,9.7c0.4,0.4,5.1,5.1,5.1,5.1s3.5,3.6,3.5,8.4
		c0,4.4-2.3,7.2-2.3,7.2s-4,6.8-14.9,4.4c0,0-1.8-0.4-3.3-1.5c0.3-6.3-5-11.4-5-11.4c-0.1-0.1-0.1-0.1-0.2-0.2
		c0.3-1.1,1.2-3.2,3.3-4.7c1.1-0.8,2.1-1.1,3.9-1.1c2.1,0,2.5,0.9,2.5,0.9v0c-0.4-0.1-0.8-0.2-1.2-0.2c-2.1,0-3.7,1.6-3.7,3.7
		C31.7,37.1,33.3,38.7,35.4,38.7z M3.7,58.4v-15c0,0,1.8-1.3,3.9-1.1c2,0.2,2.5,0.9,2.5,0.9h0c-0.4-0.1-0.8-0.2-1.2-0.2
		c-2,0-3.7,1.7-3.7,3.7c0,2,1.6,3.7,3.7,3.7c0.2,0,0.4,0,0.6-0.1c0,0,0.1,0,0.1,0c0,0,2.7-0.2,3.4-3.4c0.4-2-1.4-3.9-1.4-3.9
		s-1.4-1.8-3.9-1.8c-2.5,0-4,0.9-4,0.9V3.5h35.1c0,0-2.7,3.1-2.6,7.7l-0.4,0.1l-0.5,2.5c-5.2-3.8-11.5-3.8-11.5-3.8
		c-8.3,0-11.9,5.7-11.9,5.7c-5.7,8.7,1.9,16.7,1.9,16.7c0.9,1.3,6.1,6.4,6.1,6.4c2.8,2.4,4.4,4.8,4.4,4.8s2.5,2.9,1.6,7.9
		c-0.9,5.1-3.6,6.9-3.6,6.9H3.7z M27.1,58.4c4.6-4.2,4.8-8.6,4.8-8.6c0-0.1,0-0.2,0.1-0.4c0.7,0.5,3.5,2,8.5,2c0,0,9.9,0.6,15.4-7.1
		c0,0,2.4-2.7,2.8-7v21.1H27.1z"/>
</g>
</svg>
