<svg id="圖層_1" data-name="圖層 1" xmlns="http://www.w3.org/2000/svg" width="2500" height="50" viewBox="0 0 2500 50"><defs><style>.cls-1,.cls-10,.cls-2,.cls-3,.cls-8{fill:none;stroke-miterlimit:10;}.cls-1{stroke:#000;}.cls-1,.cls-2,.cls-3{stroke-linecap:round;}.cls-2,.cls-3,.cls-8{stroke:#fff;}.cls-3{stroke-width:1.5px;}.cls-4{fill:#393;}.cls-4,.cls-5,.cls-7{fill-rule:evenodd;}.cls-6,.cls-7{fill:#fff;}.cls-9{fill:#005bbb;}.cls-10{stroke:#005bbb;}</style></defs><title>iconset</title><polyline class="cls-1" points="681.75 10.75 667.25 25.25 681.25 39.25"/><polyline class="cls-1" points="717.25 39.25 731.75 24.75 717.75 10.75"/><polyline class="cls-2" points="1381.75 10.75 1367.25 25.25 1381.25 39.25"/><polyline class="cls-2" points="1417.25 39.25 1431.75 24.75 1417.75 10.75"/><polyline class="cls-3" points="1301.5 15.52 1324.9 38.93 1347.5 16.33"/><path id="_09.Line" data-name="09.Line" d="M24.16,5.32c-11.68,0-21.23,7.8-21.23,17.35,0,8.54,7.54,15.71,17.78,17.09.69.16,1.64.48,1.85,1.06a3.87,3.87,0,0,1,.06,1.91l-.27,1.8c-.1.53-.42,2.13,1.86,1.17s12.26-7.27,16.71-12.42c3-3.34,4.51-6.79,4.51-10.61C45.38,13.07,35.88,5.32,24.16,5.32Zm-8.34,23H11.58a1.16,1.16,0,0,1-1.11-1.11V18.75a1.11,1.11,0,1,1,2.22,0v7.37h3.13a1.12,1.12,0,1,1,0,2.23Zm4.41-1.17a1.09,1.09,0,0,1-1.12,1.12A1.12,1.12,0,0,1,18,27.18V18.69a1.09,1.09,0,0,1,1.11-1.11,1.12,1.12,0,0,1,1.12,1.11Zm10.13,0a1.14,1.14,0,0,1-.74,1.06.69.69,0,0,1-.37.06,1.12,1.12,0,0,1-.9-.43L24.05,22v5.26a1.09,1.09,0,0,1-1.11,1.11,1.12,1.12,0,0,1-1.12-1.11V18.75a1.17,1.17,0,0,1,.74-1.07.86.86,0,0,1,.32-.05,1,1,0,0,1,.9.48l4.36,5.94V18.8a1.09,1.09,0,0,1,1.11-1.12,1.12,1.12,0,0,1,1.11,1.12Zm6.85-5.36a1.12,1.12,0,0,1,1.11,1.12,1.08,1.08,0,0,1-1.11,1.11H34.08v2h3.08a1.12,1.12,0,0,1,1.11,1.11,1.09,1.09,0,0,1-1.11,1.12H32.91a1.12,1.12,0,0,1-1.11-1.12V18.69a1.08,1.08,0,0,1,1.11-1.11h4.25a1.12,1.12,0,0,1,1.11,1.11,1.09,1.09,0,0,1-1.11,1.12H34.08v2Z"/><path class="cls-4" d="M2074.78,1.92h-.28a12.88,12.88,0,0,0-13.1,12.53V35.58a12.85,12.85,0,0,0,13.07,12.5h.31a12.85,12.85,0,0,0,12.82-12.53V14.41A12.85,12.85,0,0,0,2074.78,1.92Zm10.32,33.6a10.61,10.61,0,0,1-21.2,0V14.48a10.37,10.37,0,0,1,10.57-10.07h.06a10.34,10.34,0,0,1,10.57,10Z"/><path class="cls-4" d="M2077.81,23.91l-3.13,3-3.14-3a.68.68,0,0,0-.94,0l0,0a.62.62,0,0,0,0,.88l3.61,3.46a.67.67,0,0,0,.93,0l3.61-3.46a.63.63,0,0,0,0-.9A.68.68,0,0,0,2077.81,23.91Z"/><path class="cls-4" d="M2074.67,17a2.18,2.18,0,1,0,.21-4.36,2.23,2.23,0,0,0-2.29,2.18A2.19,2.19,0,0,0,2074.67,17Z"/><path class="cls-5" d="M2024.78,1.92h-.28a12.88,12.88,0,0,0-13.1,12.53V35.58a12.85,12.85,0,0,0,13.07,12.5h.31a12.85,12.85,0,0,0,12.82-12.53V14.41A12.85,12.85,0,0,0,2024.78,1.92Zm10.32,33.6a10.61,10.61,0,0,1-21.2,0V14.48a10.37,10.37,0,0,1,10.57-10.07h.06a10.34,10.34,0,0,1,10.57,10Z"/><path class="cls-5" d="M2027.81,23.91l-3.13,3-3.14-3a.68.68,0,0,0-.94,0l0,0a.62.62,0,0,0,0,.88l3.61,3.46a.67.67,0,0,0,.93,0l3.61-3.46a.63.63,0,0,0,0-.9A.68.68,0,0,0,2027.81,23.91Z"/><path class="cls-5" d="M2024.67,17a2.18,2.18,0,1,0,.21-4.36,2.23,2.23,0,0,0-2.29,2.18A2.19,2.19,0,0,0,2024.67,17Z"/><path d="M87.58,5.07H61.87A10.38,10.38,0,0,0,51.5,15.44V33.79A10.38,10.38,0,0,0,61.87,44.16H87.58A10,10,0,0,0,97.5,33.79V15.44A10,10,0,0,0,87.58,5.07Zm6.73,28.72c0,4.09-2.89,7.18-6.73,7.18H61.87a7.19,7.19,0,0,1-7.18-7.18V15.44a7.19,7.19,0,0,1,7.18-7.18H87.58c3.84,0,6.73,3.09,6.73,7.18Z"/><path d="M81.35,23.2l-5-2.57-5.46-2.81a1.52,1.52,0,0,0-.73-.18,1.6,1.6,0,0,0-1.59,1.6V30a1.62,1.62,0,0,0,.17.72,1.6,1.6,0,0,0,2.15.69l5.46-2.8,5-2.56a1.61,1.61,0,0,0,.69-.7A1.57,1.57,0,0,0,81.35,23.2Z"/><path d="M130.41,12h3.83V5.3a47,47,0,0,0-5.58-.3c-5.53,0-9.32,3.48-9.32,9.87v5.88h-6.1v7.47h6.1V47h7.48V28.22h5.85l.93-7.47h-6.78V15.61c0-2.16.58-3.64,3.59-3.64Z"/><path d="M183.89,3.67H165.7a12.62,12.62,0,0,0-12.62,12.61V34.47A12.62,12.62,0,0,0,165.7,47.08h18.19A12.62,12.62,0,0,0,196.5,34.47V16.28A12.62,12.62,0,0,0,183.89,3.67Zm9.22,30.8a9.23,9.23,0,0,1-9.22,9.22H165.7a9.22,9.22,0,0,1-9.22-9.22V16.28a9.22,9.22,0,0,1,9.22-9.22h18.19a9.23,9.23,0,0,1,9.22,9.22Z"/><path d="M174.79,13.67a11.71,11.71,0,1,0,11.7,11.7A11.72,11.72,0,0,0,174.79,13.67Zm0,20a8.32,8.32,0,1,1,8.31-8.32A8.32,8.32,0,0,1,174.79,33.69Z"/><path d="M186.66,11.81a1.7,1.7,0,1,0,1.7,1.69A1.69,1.69,0,0,0,186.66,11.81Z"/><path id="_09.Line-2" data-name="09.Line" class="cls-6" d="M274.16,5.32c-11.68,0-21.23,7.8-21.23,17.35,0,8.54,7.54,15.71,17.78,17.09.69.16,1.64.48,1.85,1.06a3.87,3.87,0,0,1,.06,1.91l-.27,1.8c-.1.53-.42,2.13,1.86,1.17s12.26-7.27,16.71-12.42c3-3.34,4.51-6.79,4.51-10.61C295.38,13.07,285.88,5.32,274.16,5.32Zm-8.34,23h-4.24a1.16,1.16,0,0,1-1.11-1.11V18.75a1.11,1.11,0,1,1,2.22,0v7.37h3.13a1.12,1.12,0,1,1,0,2.23Zm4.41-1.17a1.09,1.09,0,0,1-1.12,1.12A1.12,1.12,0,0,1,268,27.18V18.69a1.09,1.09,0,0,1,1.11-1.11,1.12,1.12,0,0,1,1.12,1.11Zm10.13,0a1.14,1.14,0,0,1-.74,1.06.69.69,0,0,1-.37.06,1.12,1.12,0,0,1-.9-.43L274.05,22v5.26a1.09,1.09,0,0,1-1.11,1.11,1.12,1.12,0,0,1-1.12-1.11V18.75a1.17,1.17,0,0,1,.74-1.07.86.86,0,0,1,.32-.05,1,1,0,0,1,.9.48l4.36,5.94V18.8a1.09,1.09,0,0,1,1.11-1.12,1.12,1.12,0,0,1,1.11,1.12Zm6.85-5.36a1.12,1.12,0,0,1,1.11,1.12,1.08,1.08,0,0,1-1.11,1.11h-3.13v2h3.08a1.12,1.12,0,0,1,1.11,1.11,1.09,1.09,0,0,1-1.11,1.12h-4.25a1.12,1.12,0,0,1-1.11-1.12V18.69a1.08,1.08,0,0,1,1.11-1.11h4.25a1.12,1.12,0,0,1,1.11,1.11,1.09,1.09,0,0,1-1.11,1.12h-3.08v2Z"/><path class="cls-6" d="M337.58,5.07H311.87A10.38,10.38,0,0,0,301.5,15.44V33.79a10.38,10.38,0,0,0,10.37,10.37h25.71a10,10,0,0,0,9.92-10.37V15.44A10,10,0,0,0,337.58,5.07Zm6.73,28.72c0,4.09-2.89,7.18-6.73,7.18H311.87a7.19,7.19,0,0,1-7.18-7.18V15.44a7.19,7.19,0,0,1,7.18-7.18h25.71c3.84,0,6.73,3.09,6.73,7.18Z"/><path class="cls-6" d="M331.35,23.2l-5-2.57-5.46-2.81a1.52,1.52,0,0,0-.73-.18,1.6,1.6,0,0,0-1.59,1.6V30a1.62,1.62,0,0,0,.17.72,1.6,1.6,0,0,0,2.15.69l5.46-2.8,5-2.56a1.61,1.61,0,0,0,.69-.7A1.57,1.57,0,0,0,331.35,23.2Z"/><path class="cls-6" d="M380.41,12h3.83V5.3a47,47,0,0,0-5.58-.3c-5.53,0-9.32,3.48-9.32,9.87v5.88h-6.1v7.47h6.1V47h7.48V28.22h5.85l.93-7.47h-6.78V15.61c0-2.16.58-3.64,3.59-3.64Z"/><path class="cls-6" d="M433.89,3.67H415.7a12.62,12.62,0,0,0-12.62,12.61V34.47A12.62,12.62,0,0,0,415.7,47.08h18.19A12.62,12.62,0,0,0,446.5,34.47V16.28A12.62,12.62,0,0,0,433.89,3.67Zm9.22,30.8a9.23,9.23,0,0,1-9.22,9.22H415.7a9.22,9.22,0,0,1-9.22-9.22V16.28a9.22,9.22,0,0,1,9.22-9.22h18.19a9.23,9.23,0,0,1,9.22,9.22Z"/><path class="cls-6" d="M424.79,13.67a11.71,11.71,0,1,0,11.7,11.7A11.72,11.72,0,0,0,424.79,13.67Zm0,20a8.32,8.32,0,1,1,8.31-8.32A8.32,8.32,0,0,1,424.79,33.69Z"/><path class="cls-6" d="M436.66,11.81a1.7,1.7,0,1,0,1.7,1.69A1.69,1.69,0,0,0,436.66,11.81Z"/><path class="cls-6" d="M1084.07,36.79l10.66-10.66a1.59,1.59,0,0,0,0-2.26l-10.66-10.66a1.6,1.6,0,0,0-2.26,2.26l7.93,7.93H1055.4a1.6,1.6,0,0,0,0,3.2h34.34l-7.93,7.93a1.6,1.6,0,0,0,2.26,2.26Z"/><path class="cls-7" d="M1225,1.92h-.29a13.14,13.14,0,0,0-13.36,12.77V36.25A13.11,13.11,0,0,0,1224.66,49h.32a13.11,13.11,0,0,0,13.07-12.78V14.66A13.09,13.09,0,0,0,1225,1.92Zm10.52,34.27a10.83,10.83,0,0,1-21.62,0V14.73a10.58,10.58,0,0,1,10.78-10.27h.06a10.54,10.54,0,0,1,10.78,10.23Z"/><path class="cls-7" d="M1224.69,10a1.5,1.5,0,0,0-1.5,1.5v7a1.5,1.5,0,0,0,3,0v-7A1.5,1.5,0,0,0,1224.69,10Z"/><line class="cls-8" x1="1101.5" y1="2" x2="1147.5" y2="48"/><line class="cls-8" x1="1147.5" y1="2" x2="1101.5" y2="48"/><polygon class="cls-9" points="769.31 37.72 766.77 35.17 777.49 24.45 767.37 14.33 769.91 11.78 782.58 24.45 769.31 37.72"/><polygon class="cls-9" points="641.85 31.93 638.5 35.28 624.39 21.17 611.06 34.49 607.72 31.14 624.39 14.47 641.85 31.93"/><polygon class="cls-6" points="591.85 31.93 588.5 35.28 574.39 21.17 561.06 34.49 557.72 31.14 574.39 14.47 591.85 31.93"/><circle class="cls-10" cx="774.67" cy="24.75" r="23.5"/></svg>